<?xml version="1.0" encoding="UTF-8" standalone="no"?>
<!-- Created with Inkscape (http://www.inkscape.org/) -->

<svg
   width="129.11667mm"
   height="129.11667mm"
   viewBox="0 0 129.11666 129.11666"
   version="1.1"
   id="svg4053"
   inkscape:version="1.2.1 (1:1.2.1+202210291243+9c6d41e410)"
   sodipodi:docname="desktoppal97.svg"
   xmlns:inkscape="http://www.inkscape.org/namespaces/inkscape"
   xmlns:sodipodi="http://sodipodi.sourceforge.net/DTD/sodipodi-0.dtd"
   xmlns="http://www.w3.org/2000/svg"
   xmlns:svg="http://www.w3.org/2000/svg">
  <sodipodi:namedview
     id="namedview4055"
     pagecolor="#ffffff"
     bordercolor="#000000"
     borderopacity="0.25"
     inkscape:showpageshadow="2"
     inkscape:pageopacity="0.0"
     inkscape:pagecheckerboard="0"
     inkscape:deskcolor="#d1d1d1"
     inkscape:document-units="mm"
     showgrid="false"
     inkscape:zoom="1.4142136"
     inkscape:cx="-8.131728"
     inkscape:cy="99.348503"
     inkscape:window-width="1536"
     inkscape:window-height="866"
     inkscape:window-x="0"
     inkscape:window-y="0"
     inkscape:window-maximized="1"
     inkscape:current-layer="layer1">
    <inkscape:grid
       type="xygrid"
       id="grid8364"
       originx="-84.340556"
       originy="17.710597" />
  </sodipodi:namedview>
  <defs
     id="defs4050">
    <rect
       x="32.397285"
       y="-550.0083"
       width="419.60275"
       height="115.00828"
       id="rect3402" />
    <rect
       x="32.397285"
       y="-550.0083"
       width="419.60275"
       height="115.00828"
       id="rect3404" />
  </defs>
  <g
     inkscape:label="Réteg 1"
     inkscape:groupmode="layer"
     id="layer1"
     transform="translate(-133.66719,-73.647405)">
    <g
       id="g8815"
       transform="matrix(1.9999997,0,0,1.9999996,-133.66715,-73.647381)"
       style="stroke-width:0.5">
      <g
         id="g3400"
         transform="matrix(0.33145417,0,0,0.33145417,222.12615,112.94731)"
         style="stroke-width:1.50849"
         inkscape:export-filename="g8643.png"
         inkscape:export-xdpi="432"
         inkscape:export-ydpi="432">
        <rect
           style="fill:#ffffff;fill-opacity:1;stroke:none;stroke-width:1.05597;stroke-linecap:round;stroke-linejoin:round;stroke-opacity:1;paint-order:stroke markers fill"
           id="rect3221"
           width="191.58003"
           height="191.58003"
           x="-265.28491"
           y="-116.97161" />
        <g
           id="g3246"
           transform="translate(2.8037155)"
           style="stroke-width:1.50849">
          <path
             id="path3232"
             style="fill:#000080;fill-opacity:1;stroke-width:1.05597;stroke-linecap:round;stroke-linejoin:round;paint-order:stroke markers fill"
             d="m -254.59712,-83.273941 v 1.424268 h 80.14508 v -1.424268 z m 86.95968,0 v 1.424268 h 51.3723 v -1.424268 z" />
          <g
             aria-label="Desktop Pal"
             transform="matrix(2.2713888,0,0,2.2713888,-735.85959,1138.4097)"
             id="text3238"
             style="font-size:13.3333px;line-height:1.1;font-family:Signika;-inkscape-font-specification:Signika;text-align:center;white-space:pre;shape-inside:url(#rect3402);display:inline;stroke-width:0.464896;stroke-linecap:round;stroke-linejoin:round;paint-order:stroke markers fill">
            <path
               d="m 214.26505,-548.38209 q 0.88,0 1.61333,0.32 0.74666,0.32 1.29333,0.92 0.54666,0.6 0.85333,1.46666 0.30667,0.86667 0.30667,1.96 0,1.10666 -0.30667,1.97333 -0.30667,0.86666 -0.85333,1.46666 -0.54667,0.6 -1.29333,0.92 -0.73333,0.30666 -1.61333,0.30666 h -2.33333 v -0.13333 l 0.8,-0.2 v -8.66664 l -0.8,-0.2 v -0.13334 z m -0.4,0.26667 v 8.79998 h 0.4 q 0.57333,0 1.08,-0.24 0.51999,-0.25333 0.89333,-0.78667 0.38666,-0.53333 0.6,-1.35999 0.22666,-0.84 0.22666,-2.01333 0,-1.17333 -0.22666,-2 -0.21334,-0.83999 -0.6,-1.37333 -0.37334,-0.53333 -0.89333,-0.77333 -0.50667,-0.25333 -1.08,-0.25333 z"
               style="font-family:Oranienbaum;-inkscape-font-specification:Oranienbaum;stroke-width:0.464896"
               id="path4770" />
            <path
               d="m 220.59836,-542.11543 q 0,0.85333 0.12,1.42666 0.13333,0.57333 0.33333,0.93333 0.21333,0.34667 0.46667,0.49333 0.26666,0.14667 0.54666,0.14667 0.34667,0 0.65333,-0.13334 0.30667,-0.13333 0.54667,-0.35999 0.24,-0.22667 0.38666,-0.54667 0.16,-0.32 0.21334,-0.69333 h 0.2 q -0.0533,0.42666 -0.24,0.8 -0.17334,0.36 -0.45334,0.62666 -0.27999,0.26667 -0.65333,0.41333 -0.36,0.16 -0.78666,0.16 -0.50667,0 -0.96,-0.21333 -0.45333,-0.22667 -0.81333,-0.64 -0.34667,-0.42666 -0.56,-1.02666 -0.2,-0.61333 -0.2,-1.38666 0,-0.8 0.2,-1.41333 0.2,-0.61334 0.52,-1.01334 0.33333,-0.41333 0.76,-0.62666 0.44,-0.21333 0.92,-0.21333 0.47999,0 0.90666,0.21333 0.44,0.21333 0.76,0.62666 0.33333,0.4 0.53333,1.01334 0.2,0.61333 0.2,1.41333 z m 1.2,-3.06666 q -0.2,0 -0.4,0.13333 -0.2,0.12 -0.37334,0.44 -0.17333,0.32 -0.29333,0.86666 -0.10666,0.53333 -0.13333,1.36 h 2.39999 q -0.0267,-0.82667 -0.14666,-1.36 -0.10667,-0.54666 -0.28,-0.86666 -0.17334,-0.32 -0.37334,-0.44 -0.19999,-0.13333 -0.39999,-0.13333 z"
               style="font-family:Oranienbaum;-inkscape-font-specification:Oranienbaum;stroke-width:0.464896"
               id="path4772" />
            <path
               d="m 227.59834,-538.84878 q -0.42667,0 -0.73333,-0.10666 -0.30667,-0.0933 -0.49334,-0.22667 -0.22666,-0.14667 -0.37333,-0.33333 -0.0533,0.2 -0.22667,0.37333 -0.15999,0.17333 -0.30666,0.22667 h -0.2 q 0.0133,-0.17334 0.0267,-0.36 0.0133,-0.16 0.0267,-0.33333 0.0133,-0.18667 0.0133,-0.37334 0,-0.2 -0.0133,-0.4 -0.0133,-0.2 -0.0267,-0.35999 -0.0133,-0.18667 -0.0267,-0.37334 h 0.2 q 0.25333,0.96 0.77333,1.48 0.52,0.52 1.22666,0.52 0.56,0 0.90667,-0.34667 0.36,-0.34666 0.36,-0.85333 0,-0.36 -0.25334,-0.62666 -0.23999,-0.26667 -0.61333,-0.48 -0.37333,-0.22667 -0.8,-0.44 -0.42666,-0.21333 -0.79999,-0.48 -0.37334,-0.26667 -0.62667,-0.62667 -0.24,-0.35999 -0.24,-0.87999 0,-0.29334 0.13334,-0.57334 0.13333,-0.27999 0.35999,-0.49333 0.24,-0.21333 0.57334,-0.33333 0.33333,-0.13333 0.73333,-0.13333 0.34666,0 0.6,0.10666 0.26666,0.10667 0.45333,0.22667 0.2,0.14667 0.34666,0.33333 0.0533,-0.2 0.21334,-0.37333 0.17333,-0.17333 0.32,-0.22667 h 0.2 q -0.0267,0.17334 -0.04,0.36 -0.0133,0.16 -0.0267,0.34667 0,0.18666 0,0.36 0,0.2 0,0.41333 0.0133,0.2 0.0267,0.36 0.0133,0.18667 0.04,0.36 h -0.2 q -0.25334,-0.96 -0.74667,-1.48 -0.49333,-0.52 -1.05333,-0.52 -0.45333,0 -0.76,0.30667 -0.30666,0.29333 -0.30666,0.69333 0,0.33333 0.25333,0.57333 0.25333,0.24 0.62666,0.45333 0.37334,0.2 0.81334,0.41334 0.45333,0.21333 0.82666,0.49333 0.37333,0.28 0.62667,0.66666 0.25333,0.38667 0.25333,0.93333 0,0.32 -0.16,0.64 -0.14667,0.30667 -0.42667,0.56 -0.26666,0.24 -0.65333,0.38667 -0.37333,0.14666 -0.82666,0.14666 z"
               style="font-family:Oranienbaum;-inkscape-font-specification:Oranienbaum;stroke-width:0.464896"
               id="path4774" />
            <path
               d="m 232.26497,-541.2221 v 1.83999 l 0.73333,0.2 v 0.13333 h -2.59999 v -0.13333 l 0.8,-0.2 v -8.66664 l -0.8,-0.2 v -0.13334 h 1.86666 v 6.79999 l 2.2,-3.13333 -0.86667,-0.33333 v -0.13333 h 2 v 0.13333 l -0.86667,0.33333 -1.29333,1.84 2.09333,3.49332 0.8,0.2 v 0.13333 h -2.73333 v -0.13333 l 0.73333,-0.2 -1.54666,-2.57333 z"
               style="font-family:Oranienbaum;-inkscape-font-specification:Oranienbaum;stroke-width:0.464896"
               id="path4776" />
            <path
               d="m 239.99827,-545.18209 v 0.26666 h -1.53333 v 4.25333 q 0,0.81333 0.29334,1.18666 0.29333,0.36 0.64,0.36 0.45333,0 0.75999,-0.33333 0.32,-0.34667 0.37334,-1 h 0.2 q -0.0533,0.76 -0.46667,1.18666 -0.4,0.41333 -1,0.41333 -0.85333,0 -1.35999,-0.49333 -0.50667,-0.50666 -0.50667,-1.30666 v -4.26666 h -1.13333 v -0.26666 h 1.13333 v -1.53333 l 1.06666,-0.73333 v 2.26666 z"
               style="font-family:Oranienbaum;-inkscape-font-specification:Oranienbaum;stroke-width:0.464896"
               id="path4778" />
            <path
               d="m 243.86492,-545.18209 q -0.22666,0 -0.46666,0.16 -0.22667,0.14666 -0.42667,0.50666 -0.18667,0.34667 -0.32,0.93333 -0.12,0.58667 -0.12,1.46667 0,0.87999 0.12,1.46666 0.13333,0.58666 0.32,0.94666 0.2,0.34667 0.42667,0.50667 0.24,0.14666 0.46666,0.14666 0.22667,0 0.45333,-0.14666 0.24,-0.16 0.42667,-0.50667 0.2,-0.36 0.32,-0.94666 0.13333,-0.58667 0.13333,-1.46666 0,-0.88 -0.13333,-1.46667 -0.12,-0.58666 -0.32,-0.93333 -0.18667,-0.36 -0.42667,-0.50666 -0.22666,-0.16 -0.45333,-0.16 z m 0,-0.2 q 0.49333,0 0.94667,0.22666 0.46666,0.21334 0.81333,0.64 0.36,0.41333 0.56,1.02667 0.21333,0.59999 0.21333,1.37333 0,0.77333 -0.21333,1.38666 -0.2,0.6 -0.56,1.02666 -0.34667,0.41333 -0.81333,0.64 -0.45334,0.21333 -0.94667,0.21333 -0.50666,0 -0.96,-0.21333 -0.45333,-0.22667 -0.81333,-0.64 -0.34666,-0.42666 -0.56,-1.02666 -0.2,-0.61333 -0.2,-1.38666 0,-0.77334 0.2,-1.37333 0.21334,-0.61334 0.56,-1.02667 0.36,-0.42666 0.81333,-0.64 0.45334,-0.22666 0.96,-0.22666 z"
               style="font-family:Oranienbaum;-inkscape-font-specification:Oranienbaum;stroke-width:0.464896"
               id="path4780" />
            <path
               d="m 248.13157,-544.84876 -0.8,-0.2 v -0.13333 h 1.86666 v 0.79999 q 0.13334,-0.26666 0.36,-0.49333 0.18667,-0.18666 0.48,-0.34666 0.29333,-0.16 0.69333,-0.16 0.42667,0 0.84,0.22666 0.42667,0.21334 0.74666,0.64 0.33334,0.41333 0.53334,1.02667 0.21333,0.59999 0.21333,1.37333 0,0.77333 -0.21333,1.38666 -0.2,0.6 -0.54667,1.02666 -0.34666,0.41333 -0.78666,0.64 -0.44,0.21333 -0.92,0.21333 -0.38667,0 -0.65333,-0.10666 -0.25334,-0.0933 -0.42667,-0.22667 -0.2,-0.14667 -0.32,-0.33333 v 3.33332 l 0.8,0.2 v 0.13334 h -2.66666 v -0.13334 l 0.8,-0.2 z m 2.26666,5.73332 q 0.28,0 0.53333,-0.14667 0.26667,-0.14666 0.46667,-0.49333 0.21333,-0.36 0.33333,-0.93333 0.13333,-0.57333 0.13333,-1.42666 0,-0.85334 -0.13333,-1.42667 -0.12,-0.57333 -0.32,-0.92 -0.18667,-0.34666 -0.42667,-0.49333 -0.22666,-0.16 -0.45333,-0.16 -0.33333,0 -0.57333,0.18667 -0.24,0.18667 -0.41333,0.41333 -0.2,0.26667 -0.34667,0.6 v 3.99999 q 0.12,0.22667 0.29334,0.4 0.14666,0.14667 0.37333,0.28 0.22666,0.12 0.53333,0.12 z"
               style="font-family:Oranienbaum;-inkscape-font-specification:Oranienbaum;stroke-width:0.464896"
               id="path4782" />
            <path
               d="m 259.39818,-542.3821 v 2.99999 l 0.79999,0.2 v 0.13333 h -2.73332 v -0.13333 l 0.8,-0.2 v -8.66664 l -0.8,-0.2 v -0.13334 h 2.39999 q 0.82667,0 1.46666,0.22667 0.65334,0.22667 1.09334,0.62667 0.43999,0.39999 0.66666,0.94666 0.24,0.54667 0.24,1.2 0,0.65333 -0.24,1.19999 -0.22667,0.54667 -0.66666,0.94667 -0.44,0.4 -1.09334,0.62666 -0.63999,0.22667 -1.46666,0.22667 z m 0,-0.26667 h 0.46666 q 1.05333,0 1.62666,-0.63999 0.57334,-0.64 0.57334,-2.09333 0,-1.45333 -0.57334,-2.09333 -0.57333,-0.64 -1.62666,-0.64 h -0.46666 z"
               style="font-family:Oranienbaum;-inkscape-font-specification:Oranienbaum;stroke-width:0.464896"
               id="path4784" />
            <path
               d="m 267.59815,-542.31543 q -1.16,0 -1.72,0.51999 -0.54666,0.50667 -0.54666,1.41333 0,0.6 0.29333,0.93334 0.29333,0.33333 0.64,0.33333 0.32,0 0.55999,-0.18667 0.25334,-0.18666 0.42667,-0.41333 0.2,-0.25333 0.34667,-0.6 z m -1,-2.86666 q -0.4,0 -0.66667,0.28 -0.26666,0.26666 -0.26666,0.71999 0,0.10667 0,0.18667 0.0133,0.08 0.0267,0.14667 0.0133,0.0667 0.04,0.13333 l -1.06666,0.26667 q -0.0267,-0.04 -0.04,-0.10667 -0.0133,-0.0667 -0.0267,-0.14667 0,-0.08 0,-0.21333 0,-0.28 0.13334,-0.53333 0.13333,-0.26667 0.38666,-0.46667 0.26667,-0.21333 0.62667,-0.33333 0.37333,-0.13333 0.85333,-0.13333 0.96,0 1.50666,0.54666 0.56,0.54667 0.56,1.45333 v 3.99999 l 0.8,0.2 v 0.13333 h -1.86666 v -0.79999 q -0.14667,0.28 -0.37334,0.50666 -0.18666,0.18667 -0.47999,0.33333 -0.28,0.16 -0.68,0.16 -0.96,0 -1.45333,-0.45333 -0.48,-0.45333 -0.48,-1.21333 0,-0.37333 0.2,-0.74666 0.21333,-0.37334 0.62666,-0.66667 0.42667,-0.29333 1.08,-0.46666 0.65333,-0.18667 1.56,-0.18667 v -0.8 q 0,-1 -0.30667,-1.39999 -0.29333,-0.4 -0.69333,-0.4 z"
               style="font-family:Oranienbaum;-inkscape-font-specification:Oranienbaum;stroke-width:0.464896"
               id="path4786" />
            <path
               d="m 270.86478,-539.38211 v -8.66664 l -0.8,-0.2 v -0.13334 h 1.86666 v 8.99998 l 0.8,0.2 v 0.13333 h -2.66666 v -0.13333 z"
               style="font-family:Oranienbaum;-inkscape-font-specification:Oranienbaum;stroke-width:0.464896"
               id="path4788" />
          </g>
          <g
             aria-label="97"
             transform="matrix(3.65547,0,0,3.65547,-995.51557,1905.1119)"
             id="text3244"
             style="font-size:13.3333px;line-height:1.1;font-family:Signika;-inkscape-font-specification:Signika;text-align:center;white-space:pre;shape-inside:url(#rect3404);display:inline;fill:#000080;stroke-width:0.288871;stroke-linecap:round;stroke-linejoin:round;paint-order:stroke markers fill">
            <path
               d="m 238.8516,-545.11466 c -0.37333,0.53333 -0.57333,1.07999 -0.57333,1.62666 0,0.61333 0.29333,1.02666 0.88,1.19999 0.16,0.0533 0.37333,0.08 0.61333,0.08 0.82667,0 1.57333,-0.15999 2.25333,-0.49333 -0.57333,0.97333 -1.30667,1.84 -2.17333,2.56 -0.96,0.78666 -1.87999,1.22666 -2.78666,1.39999 -0.17333,0.0267 -0.26667,0.08 -0.26667,0.14667 0,0.0533 0.04,0.0667 0.14667,0.0667 0.04,0 0.0933,0 0.14667,-0.0133 1.57333,-0.28 3.13332,-1.25333 4.66665,-2.91999 1.25333,-1.36 1.85333,-2.58666 1.85333,-3.66666 0,-0.81333 -0.36,-1.31999 -1.09333,-1.55999 -0.21333,-0.0667 -0.44,-0.10667 -0.68,-0.10667 -0.57333,0 -1.15999,0.2 -1.77333,0.57333 -0.52,0.33333 -0.91999,0.69333 -1.21333,1.10667 z m 3.27999,2.22666 c -0.50666,0.25333 -1.09333,0.38666 -1.75999,0.38666 -0.4,0 -0.70667,-0.0667 -0.93333,-0.2 -0.30667,-0.18666 -0.46667,-0.53333 -0.46667,-1.03999 0,-0.34667 0.0933,-0.73334 0.28,-1.14667 0.22667,-0.48 0.6,-0.88 1.12,-1.21333 0.50666,-0.30666 0.98666,-0.46666 1.45333,-0.46666 0.34666,0 0.6,0.0933 0.8,0.26666 0.24,0.22667 0.37333,0.58667 0.37333,1.05333 0,0.88 -0.29333,1.66666 -0.86667,2.36 z"
               style="font-family:'Scriptina Pro';-inkscape-font-specification:'Scriptina Pro';fill:#aa0000;stroke-width:0.288871"
               id="path4791" />
            <path
               d="m 243.01158,-537.94135 c -0.12,-0.48 0.73333,-1.77333 2.69333,-3.67999 l 3.95999,-3.86666 c 0.10666,-0.10666 0.14666,-0.22666 0.14666,-0.36 0,-0.25333 -0.08,-0.36 -0.28,-0.32 -0.18666,0.0933 -0.33333,0.16 -0.4,0.21334 -0.12,0.0267 -0.21333,0.04 -0.26666,0.0267 -1.57333,0.04 -2.84,0.0667 -3.75999,0.08 -0.13334,0.0267 -0.32,0.0933 -0.54667,0.2 -0.28,0.13334 -0.4,0.24 -0.4,0.34667 0,0.08 0.04,0.10667 0.10667,0.10667 0.0533,0 0.10667,-0.0133 0.16,-0.0667 0.33333,-0.12 0.56,-0.21333 0.72,-0.22667 0.17333,-0.0267 0.65333,-0.04 1.43999,-0.0267 0.86667,0.0133 1.44,0.04 1.73333,0.08 0.16,0.0267 0.25333,0.0933 0.25333,0.16 0,0.0533 -0.0133,0.08 -0.0533,0.10666 -3.86666,4.09333 -5.83998,6.47999 -5.94665,7.19998 -0.0267,0.21334 0.0267,0.30667 0.17333,0.30667 0.13334,0 0.29334,-0.14667 0.26667,-0.28 z"
               style="font-family:'Scriptina Pro';-inkscape-font-specification:'Scriptina Pro';fill:#aa0000;stroke-width:0.288871"
               id="path4793" />
          </g>
        </g>
        <g
           id="g3398"
           transform="translate(0,1.9158003)"
           style="stroke-width:1.50849">
          <g
             id="g3390"
             transform="translate(-10.369088,7.7916696)"
             style="stroke-width:1.50849">
            <g
               id="g3388"
               transform="translate(3.8258626,6.3708715)"
               style="stroke-width:1.50849">
              <path
                 style="fill:#ffff55;fill-opacity:1;stroke:none;stroke-width:1.05597;stroke-linecap:round;stroke-linejoin:round;stroke-opacity:1;paint-order:stroke markers fill"
                 d="M -210.97132,-60.188043 -206.10081,45.551184 -91.971597,29.793482 -105.86816,-75.623553 Z"
                 id="path3250"
                 sodipodi:nodetypes="ccccc" />
              <path
                 style="fill:#000000;fill-opacity:1;stroke:none;stroke-width:1.05597;stroke-linecap:round;stroke-linejoin:round;stroke-opacity:1;paint-order:stroke markers fill"
                 d="m -217.24751,36.374084 103.95331,3.190373 10.80357,-100.41138 -5.76842,106.741679 z"
                 id="path3255" />
              <path
                 style="fill:#ffffaa;fill-opacity:1;stroke:none;stroke-width:1.05597;stroke-linecap:round;stroke-linejoin:round;stroke-opacity:1;paint-order:stroke markers fill"
                 d="m -195.54919,-70.631079 -24.46112,106.682044 109.64014,6.089477 8.46345,-105.480915 z"
                 id="path3257"
                 sodipodi:nodetypes="ccccc" />
              <path
                 id="path3259"
                 style="color:#000000;fill:#d47f00;stroke-width:1.50849;stroke-linecap:round;stroke-linejoin:round;paint-order:stroke markers fill"
                 d="m -201.62803,-34.359271 c -0.494,0.605535 -0.91083,1.273392 -1.26814,1.979207 -1.15078,2.273143 -1.73293,4.944497 -2.45877,7.300846 -0.72584,2.356357 -1.59222,4.365462 -3.18585,5.39657 -2.46687,1.596114 -6.30446,2.864951 -9.31778,4.16357 l -2.09082,-0.991154 c -3.03384,-1.437852 -4.19701,5.010049 -1.48519,7.8946086 0.76431,0.81296 1.8337,0.829268 2.90732,0.402559 4.18073,2.109559 11.01723,4.304068 18.6955,2.354379 6.33517,-1.608657 11.71506,-4.5906746 14.78515,-8.3963866 0.54182,-0.119674 1.7337,-0.678376 2.17093,-0.336414 1.66607,1.475965 -0.18531,4.245339 0.28629,6.1401936 l -1.89549,0.734839 c -0.001,-0.0038 -0.001,-0.0076 -0.003,-0.01137 -13.46232,4.280047 -17.32543,15.2230269 -16.60262,25.5121374 0.0613,0.873023 2.08816,4.880108 2.96003,4.987292 0.79608,0.09787 3.29283,-1.033304 4.1734,-1.702738 1.76124,-1.338877 2.4407,-3.635749 2.77967,-6.163965 1.46906,-10.9567804 9.19311,-18.1292544 15.24403,-21.2405634 l 0.48782,-0.568685 0.32402,-0.745963 c 0.70667,-0.294882 1.29708,-0.57322 1.63763,-0.719336 0.2819,-0.267454 0.96916,-0.588234 1.24178,-0.768946 l 0.25528,-0.08578 c -4.83775,6.696598 -8.70964,11.767134 -9.88673,16.5312907 -1.21505,4.9179007 0.19234,9.2949737 1.42627,15.6310867 0.7054,2.532344 3.73404,2.17237 5.28081,1.165821 1.93411,-1.282016 3.20993,-3.923545 2.91455,-6.505546 -0.62449,-5.45871 1.00228,-11.7813014 3.62097,-17.04495435 2.61867,-5.26365605 6.78099,-8.26934705 9.96218,-9.52396605 9.9022,-3.9052476 11.98815,-10.6891606 13.2917,-15.1303426 0.65179,-2.220592 1.00544,-4.145422 1.7539,-5.404321 0.37424,-0.629445 0.83127,-1.094208 1.48828,-1.400431 0.61897,-0.288507 1.47723,-0.403841 2.574,-0.355534 1.41373,3.035562 2.62399,6.443318 4.43901,7.17889 1.87026,0.757978 5.15431,-0.32284 6.9913,-1.412317 3.67396,-2.178955 6.08975,-8.061668 7.8295,-13.174907 3.83962,-11.284869 9.10047,-14.097956 13.60743,-16.874939 0.31307,-0.190126 0.16063,-0.672495 -0.20463,-0.648539 v 5.17e-4 c -5.03626,0.321384 -7.98965,-0.09495 -10.32754,1.082104 -2.33789,1.177061 -4.85378,1.994188 -6.49314,4.880323 -2.0051,3.530116 -3.02595,5.902959 -4.12533,7.389213 -0.54965,0.743122 -0.62424,3.207747 -0.98185,3.542419 -0.78649,0.756821 -1.03206,0.443358 -1.15239,-0.398425 -0.0987,-0.71469 -0.0842,-1.740524 -0.0739,-2.744019 0.0218,-2.136958 -0.26775,-4.654752 -1.29036,-6.574275 l 0.0739,-0.07648 c 0.0193,0.03519 0.0442,0.07235 0.0532,0.104386 0.13948,0.151478 0.38687,0.08854 0.44131,-0.112138 0.70821,-2.674935 4.44574,-5.138492 10.14254,-7.882206 -1.97709,-0.75516 -4.92085,-1.572175 -7.4719,-1.558561 -1.33627,0.0071 -2.56495,0.242116 -3.49022,0.833024 -1.72694,1.10287 -3.02502,2.835382 -4.32119,4.520654 -0.007,0.0087 -0.009,0.01917 -0.0145,0.02842 l -0.478,0.535368 c -1.20105,-0.40909 -2.53509,-0.726444 -3.92483,-0.910022 l 0.0382,-1.719792 c 0.21948,-1.317981 0.93638,-2.406938 1.93477,-3.397208 1.09442,-1.085475 4.00108,-1.623247 5.36815,-2.577104 1.367,-0.953857 2.54402,-2.220523 3.43389,-3.371887 0.88992,-1.151363 -0.0175,-2.641188 -0.47387,-4.28346 -0.0327,-0.116927 -0.12363,-0.208756 -0.24029,-0.242362 -0.0289,-0.0085 -0.058,-0.01261 -0.0873,-0.01344 l -4.8e-4,9e-6 c -0.0885,-0.0023 -0.17601,0.02916 -0.2434,0.08992 -1.97613,1.777137 -5.10386,2.334759 -7.53907,3.937227 -1.21765,0.801234 -3.19245,1.831054 -3.75585,3.466455 -0.5157,1.496931 0.14376,3.489448 0.70228,6.082833 l -0.28732,1.911511 c -1.28585,-0.09303 -2.6022,-0.06507 -3.90002,0.14056 -5.85305,0.927369 -9.96056,6.66071 -12.64212,9.422164 -0.0228,0.02365 -0.0363,0.052 -0.0512,0.07958 -0.15675,0.08769 -0.40857,0.241715 -0.68626,0.414445 -1.91218,-2.100578 -4.16647,-3.611173 -7.34426,-3.569291 -0.45836,0.006 -0.93554,0.0444 -1.43402,0.117822 h -5.1e-4 c -6.48335,0.954883 -12.30096,7.20596 -16.32562,11.996684 -0.0212,0.02532 -0.0367,0.05346 -0.0496,0.08216 -4.46795,-1.75087 -7.90542,-2.490757 -10.5947,-2.480468 -0.90706,0.0035 -1.72848,0.09231 -2.47687,0.255798 -0.49328,0.10776 -0.94997,0.251935 -1.37924,0.422713 -1.26743,0.6007 -2.36915,1.387018 -3.26082,2.408637 z m 2.56061,-3.522781 c -0.007,-0.02094 -0.009,-0.04257 -0.0202,-0.06253 -3.07122,-5.454531 -7.44438,-10.708943 -13.55059,-13.097392 -0.84688,-0.331254 -1.77702,-0.48233 -2.71302,-0.482141 -2.0591,4.15e-4 -4.14873,0.731829 -5.45341,1.880505 -2.83537,2.496338 -1.28976,7.583442 1.58182,8.970512 5.80289,2.803044 10.51918,1.225895 15.9029,3.381189 0.62186,0.24895 1.16125,0.532284 1.39837,0.744141 z"
                 sodipodi:nodetypes="csssccscscccccsscsccccccsccsscssscssscccscsccccccccsscccccsccccsscssccsccccccccssccccssssscc" />
              <path
                 style="color:#000000;fill:#000000;stroke-width:1.50849;stroke-linecap:round;stroke-linejoin:round;paint-order:stroke markers fill"
                 d="m -201.61135,15.604739 c 0.0613,0.873033 2.08827,4.879989 2.96014,4.987173 0.79612,0.09787 3.29249,-1.03292 4.1731,-1.702364 1.76124,-1.338888 2.44074,-3.635984 2.77972,-6.16423 1.48924,-11.1074474 9.41014,-18.3343364 15.49609,-21.3749994 0.17305,-0.08582 0.24385,-0.295615 0.1582,-0.46875 -10.88884,1.818122 -17.01331,18.5537794 -17.40567,21.7179774 -0.22752,1.834866 -3.36648,6.178492 -4.29835,5.254218 -7.14913,-7.09089 6.34768,-24.4725724 12.55559,-27.3022734 0.17725,-0.07623 0.25937,-0.281538 0.18359,-0.458984 -13.46245,4.28009 -17.32522,15.223021 -16.60241,25.5122324 z"
                 id="path3261"
                 sodipodi:nodetypes="ssssccssccs" />
              <path
                 id="path3263"
                 style="color:#000000;fill:#000000;stroke-width:1.50849;stroke-linecap:round;stroke-linejoin:round;paint-order:stroke markers fill"
                 d="m -195.03251,-39.625861 c -0.90705,0.0035 -1.72846,0.09231 -2.47685,0.255798 -2.99356,0.653947 -4.7574,2.537396 -5.90817,4.810559 -1.15078,2.273163 -1.73292,4.944468 -2.45876,7.300847 -0.72584,2.356377 -1.59222,4.365452 -3.18585,5.39657 -2.54858,1.648987 -6.56295,2.94867 -9.61699,4.292761 -1.52702,0.672045 -2.81837,1.348323 -3.60185,2.158524 -0.39174,0.405101 -0.66107,0.859341 -0.71675,1.366842 -0.0557,0.507501 0.11424,1.035356 0.49403,1.545125 0.021,0.02764 0.0462,0.05207 0.0744,0.07235 2.78286,2.049033 11.65765,7.0338626 22.07617,4.3883626 6.33526,-1.608667 11.71496,-4.5906346 14.78515,-8.3963866 0.54182,-0.119674 1.73369,-0.678385 2.17093,-0.336413 1.81535,1.60823 -0.55336,4.755202 0.46663,6.629569 1.73199,3.1827476 7.47561,0.2143826 8.92556,-0.407727 0.40151,-0.380923 1.66945,-0.886564 1.30896,-0.911055 -1.95565,0.514576 -7.63631,3.6833806 -8.93175,0.847493 -1.06857,-2.339239 0.93386,-6.585086 -0.91209,-7.220231 -1.29638,-0.0668 -2.39047,0.05671 -3.57291,0.959115 -2.93054,3.632647 -8.30431,5.695099 -14.53038,7.2760406 -10.07009,2.557025 -18.61704,-1.3872636 -21.30981,-3.3543166 -0.28149,-0.391479 -0.38201,-0.717636 -0.34933,-1.015442 0.0338,-0.308079 0.20264,-0.623659 0.52503,-0.957047 0.64479,-0.666778 1.88227,-1.342269 3.38119,-2.001945 2.99782,-1.319353 8.94908,-2.33 11.23135,-4.572848 3.29692,-3.239957 2.61844,-8.2101 4.65657,-12.302608 1.07906,-2.16671 2.56805,-2.970278 5.34799,-3.57756 2.77994,-0.607281 6.6535,-0.378208 12.64523,1.989026 0.1796,0.07185 0.35984,-1.059519 0.43149,-1.2392 0.0716,-0.180147 -0.017,-0.384388 -0.1974,-0.45527 -4.54548,-1.795846 -8.03063,-2.55134 -10.7518,-2.54093 z"
                 sodipodi:nodetypes="csssssssccsccsccsccscsssssscccc" />
              <path
                 style="color:#000000;fill:#aa0000;fill-opacity:0;stroke-width:1.05597;stroke-linecap:round;stroke-linejoin:round;paint-order:stroke markers fill"
                 d="m -184.40943,-36.759294 c -24.10477,-9.523409 -17.59512,10.74776 -24.46201,15.190805 -5.23515,3.387259 -16.09196,5.180814 -13.35069,8.860241 2.71381,1.998194 11.51347,6.9394086 21.78357,4.3315956 6.28067,-1.594808 11.59809,-4.5589546 14.59846,-8.2781616"
                 id="path3265" />
              <g
                 id="g3271"
                 transform="translate(-102.58354,17.370256)"
                 style="stroke-width:1.50849">
                <path
                   style="color:#000000;fill:#000000;stroke-width:1.50849;stroke-linecap:round;stroke-linejoin:round;paint-order:stroke markers fill"
                   d="m -118.74219,-69.193359 c -2.83537,2.496358 -1.28994,7.583373 1.58164,8.970453 5.80299,2.803074 10.51894,1.225791 15.90276,3.381105 0.62186,0.24895 1.16132,0.532284 1.398435,0.744141 0.264746,0.266059 -0.100001,0.384575 -0.05273,0.738276 0.445512,0.360069 0.898349,-0.218194 0.886718,-0.611326 -0.231213,-0.87741 -1.302543,-1.249473 -1.968753,-1.519531 -5.5842,-2.263658 -13.15885,-1.859211 -16.90427,-5.335979 -1.35469,-1.257528 -0.41996,-2.979414 0.95192,-4.564843 2.4423,-2.822466 4.62948,-0.849563 7.50592,0.193723 3.72682,1.351714 10.828891,7.612768 12.280418,10.179709 0.168905,-0.09431 0.229266,-0.307763 0.134765,-0.476563 -3.071223,-5.454581 -7.444473,-10.709187 -13.550783,-13.097656 -2.71001,-1.060014 -6.26833,-0.272325 -8.16605,1.398491 z"
                   id="path3267"
                   sodipodi:nodetypes="ssscccssssccsss" />
                <path
                   style="color:#000000;fill:#aa0000;fill-opacity:0;stroke-width:1.05597;stroke-linecap:round;stroke-linejoin:round;paint-order:stroke markers fill"
                   d="m -97.331176,-57.322694 c -3.056704,-5.428806 -7.300294,-10.861966 -13.383834,-12.950184 -4.78529,-2.499629 -13.55793,3.503454 -7.3668,7.751531 4.26982,2.037266 9.0735,2.688765 13.55938,4.18092 1.07847,0.431329 6.347346,1.772126 4.897614,2.780545"
                   id="path3269" />
              </g>
              <path
                 style="fill:#000000;fill-opacity:1;stroke:none;stroke-width:1.05597;stroke-linecap:round;stroke-linejoin:round;stroke-opacity:1;paint-order:stroke markers fill"
                 d="m -192.52934,-23.79109 c 2.60817,0.971848 4.82837,-6.95594 0.96799,-4.134324 -1.24987,0.913561 -2.63371,3.513669 -0.96799,4.134324 z"
                 id="path3277"
                 sodipodi:nodetypes="sss" />
              <path
                 style="fill:#000000;fill-opacity:1;stroke:none;stroke-width:1.05596;stroke-linecap:round;stroke-linejoin:round;stroke-opacity:1;paint-order:stroke markers fill"
                 d="m -220.47085,-18.689797 c -3.03384,-1.437872 -4.19671,5.010133 -1.48479,7.894723 2.70529,2.8775326 9.23115,-4.22338 6.24769,-5.637367 z"
                 id="path3280"
                 sodipodi:nodetypes="ssss" />
              <path
                 style="fill:#000000;fill-opacity:1;stroke:none;stroke-width:1.05597;stroke-linecap:round;stroke-linejoin:round;stroke-opacity:1;paint-order:stroke markers fill"
                 d="m -201.94287,-24.384973 c 2.60815,0.971838 4.82837,-6.955936 0.96798,-4.134321 -1.24988,0.913559 -2.6337,3.513657 -0.96798,4.134321 z"
                 id="path3292"
                 sodipodi:nodetypes="sss" />
              <g
                 id="g3298"
                 transform="translate(-102.58354,17.370256)"
                 style="stroke-width:1.50849">
                <path
                   style="color:#000000;fill:#000000;stroke-width:1.50849;stroke-linecap:round;stroke-linejoin:round;paint-order:stroke markers fill"
                   d="m -65.478714,-66.594694 c -6.483342,0.954893 -12.301218,7.206264 -16.325973,11.997038 -0.12368,0.147895 -0.104467,0.367961 0.04297,0.492187 0.147896,0.123681 0.367962,0.104468 0.492188,-0.04297 3.982645,-4.740649 9.100414,-9.222661 15.330078,-10.13086 0.01721,-0.0025 0.03414,-0.0067 0.05078,-0.01172 2.388427,-0.727071 5.510682,0.653071 7.042969,2.648438 1.957296,2.54882 0.922339,4.877027 -1.458984,5.662109 -4.413537,1.455069 -9.305757,0.947955 -14.023438,1.589844 -0.0072,9.81e-4 -0.0143,0.0027 -0.02148,0.0039 -1.385924,0.233784 -5.416142,0.569864 -5.771485,1.65625 -0.0036,0.580938 1.130201,1.61672 1.81524,1.956327 0.332967,-2.228021 1.92783,-2.217818 3.857492,-2.507896 5.567877,-0.714798 11.758171,-1.170973 15.206909,-2.569004 3.343103,-1.35521 4.832139,-4.757261 2.598123,-7.233244 -2.198891,-2.437055 -4.847598,-4.097737 -8.835389,-3.510399 z"
                   id="path3294"
                   sodipodi:nodetypes="scccsssssscccsss" />
                <path
                   style="color:#000000;fill:#aa0000;fill-opacity:0;stroke-width:1.05597;stroke-linecap:round;stroke-linejoin:round;paint-order:stroke markers fill"
                   d="m -81.537116,-54.373131 c 4.007512,-4.770248 9.182244,-9.325401 15.546949,-10.253151 5.164857,-1.572028 12.676727,5.949162 5.80705,8.979654 -4.572804,1.212932 -9.414132,0.965278 -14.098524,1.602542 -1.139625,0.224548 -6.565542,0.568381 -5.327185,1.827363"
                   id="path3296" />
              </g>
              <path
                 style="color:#000000;fill:#000000;stroke-width:1.50849;stroke-linecap:round;stroke-linejoin:round;paint-order:stroke markers fill"
                 d="m -107.4191,-58.372337 c -5.0363,0.321384 -7.98958,-0.0949 -10.32748,1.082172 -2.33789,1.177071 -4.85409,1.994427 -6.49345,4.880592 -2.00514,3.530156 -3.02551,5.902802 -4.12489,7.389066 -0.54969,0.743132 -0.6243,3.208019 -0.98191,3.542701 -0.78649,0.756831 -1.03202,0.443356 -1.15235,-0.398437 -0.0987,-0.7147 -0.0845,-1.740636 -0.0742,-2.744141 0.0327,-3.201092 -0.62365,-7.264354 -3.41535,-8.875821 -2.7917,-1.611467 -7.47667,-2.896266 -11.91533,-2.192999 -5.85315,0.927379 -9.9604,6.660852 -12.64197,9.422336 -0.134,0.138727 -0.13051,0.359711 0.008,0.49414 0.13821,0.134511 0.35918,0.131872 0.49414,-0.0059 2.66083,-2.740127 6.39676,-6.234432 12.01758,-7.125 4.31325,-0.683398 8.03966,-0.06786 10.65429,1.441406 2.61464,1.509262 4.91014,3.993287 4.09766,6.833984 -0.63704,2.227282 -0.12308,6.038321 1.00103,5.612662 1.59158,-0.602679 2.05051,-2.571638 2.84858,-3.645865 1.13011,-1.527803 2.30463,-4.547451 4.31712,-8.090551 1.61482,-2.842962 3.29639,-3.899054 5.4778,-4.997339 1.9232,-0.968284 4.76794,-1.440074 8.79101,-1.765625 -4.23211,2.619982 -9.10075,6.026103 -12.64453,16.441406 -1.69749,4.989012 -4.96057,9.884399 -8.38281,11.914062 -1.71112,1.014832 -3.42264,1.322789 -5.0625,0.658204 -1.63986,-0.664586 -3.31278,-2.317938 -4.65234,-5.453125 -0.87336,-2.044044 -4.97798,-1.423766 -5.88697,0.663037 -0.6676,1.532622 -1.22773,3.555573 -1.86706,5.733739 -1.27867,4.356333 -2.90883,10.732024 -12.6405,14.57002 -3.49822,1.379633 -7.13632,5.6911616 -9.80274,11.0507816 -2.66641,5.35962 -4.33634,11.7809628 -3.68945,17.4355464 0.25294,2.210967 -1.31095,3.998508 -3.06572,5.161653 -1.40496,0.966306 -3.26621,-0.06909 -3.60437,-1.67428 -1.22661,-6.298453 -1.30203,-9.2256763 -0.12015,-14.0092504 -0.1587,-4.80312095 10.16967,-15.4499496 9.13708,-17.4703746 -0.15646,-0.113062 -0.82534,0.314178 -0.9387,0.470414 -5.05809,7.0249006 -9.11948,12.23235165 -10.33456,17.1503016 -1.21507,4.9179494 0.19246,9.2951244 1.42642,15.6313064 0.7054,2.532365 3.73414,2.172276 5.2809,1.165718 1.93413,-1.282026 3.2098,-3.923531 2.91441,-6.505561 -0.62449,-5.458761 1.00239,-11.7812164 3.62109,-17.0449214 2.6187,-5.263706 6.78088,-8.269011 9.96213,-9.5236396 9.9023,-3.905288 11.9882,-10.689435 13.29178,-15.130657 0.65179,-2.220612 1.00544,-4.145388 1.75391,-5.404297 0.37423,-0.629455 0.83127,-1.094158 1.48828,-1.400391 0.61897,-0.288507 1.47743,-0.403776 2.57422,-0.355469 1.41372,3.035592 2.6236,6.443237 4.43862,7.178809 1.87033,0.757988 5.15455,-0.322674 6.99155,-1.412161 3.67399,-2.178975 6.08981,-8.061562 7.82959,-13.174851 3.83969,-11.284989 9.10037,-14.097997 13.60742,-16.875 0.31324,-0.190231 0.16058,-0.672915 -0.20508,-0.648437 z"
                 id="path3300"
                 sodipodi:nodetypes="csssccssscccsssscsscssssssssscccccsccsssssscsssccc" />
              <path
                 style="color:#000000;fill:#000000;stroke-width:1.50849;stroke-linecap:round;stroke-linejoin:round;paint-order:stroke markers fill"
                 d="m -130.79214,-71.303978 c -0.1164,-0.03381 -0.24201,-0.005 -0.33204,0.07617 -1.97613,1.777157 -5.10375,2.335012 -7.53906,3.9375 -1.21765,0.801244 -3.19254,1.830985 -3.75594,3.466406 -0.56341,1.63542 0.27796,3.853544 0.85555,6.810938 0.0733,0.403463 0.66125,0.373648 0.69336,-0.03516 0.13214,-1.494938 0.89582,-2.695766 1.99023,-3.78125 1.09442,-1.085485 4.00068,-1.623373 5.36775,-2.57724 1.36707,-0.953867 2.54423,-2.22042 3.43416,-3.371794 0.88992,-1.151373 -0.0174,-2.641106 -0.47378,-4.283388 -0.0327,-0.116928 -0.12358,-0.208582 -0.24024,-0.242188 z m -0.41602,0.916016 c 0.189,1.187997 -0.0717,2.177271 -0.76953,3.080078 -0.79796,1.032385 -2.06288,1.96583 -3.42188,2.914062 -1.35899,0.948233 -2.8095,1.914696 -3.97265,3.06836 -0.7377,0.731679 -1.27333,1.591012 -1.66992,2.523437 -0.21603,-1.956961 -0.17526,-3.583041 0.2207,-4.732422 0.50922,-1.478143 1.41349,-2.42865 2.54297,-3.171875 2.09395,-1.37787 4.91883,-2.039293 7.07031,-3.68164 z"
                 id="path3304"
                 sodipodi:nodetypes="scssccssscsscssscssc" />
              <path
                 style="color:#000000;fill:#000000;stroke-width:1.50849;stroke-linecap:round;stroke-linejoin:round;paint-order:stroke markers fill"
                 d="m -131.73659,-51.166965 c 0.13948,0.151478 0.38688,0.08871 0.44132,-0.111972 0.70822,-2.674965 4.44587,-5.138615 10.14271,-7.882359 -3.01277,-1.150735 -8.27043,-2.444242 -10.96212,-0.725237 -1.72693,1.10288 -3.02527,2.835381 -4.32144,4.520673 -0.0795,0.103776 -0.0733,0.251444 0.0146,0.347859 l 0.53891,-0.194084 c 1.24926,-1.623497 2.40392,-2.906872 4.04677,-3.764242 3.15751,-1.647838 6.24416,-0.89172 7.41267,0.09363 -4.90562,2.523756 -6.86538,4.430037 -7.62154,6.946422 -0.13401,0.225934 0.24432,0.543371 0.30816,0.769305 z"
                 id="path3306"
                 sodipodi:nodetypes="cccscccscccc" />
              <g
                 id="g3334"
                 style="stroke-width:1.50849">
                <path
                   style="fill:#000000;fill-opacity:1;stroke:none;stroke-width:1.05597;stroke-linecap:round;stroke-linejoin:round;stroke-opacity:1;paint-order:stroke markers fill"
                   d="m -152.75018,18.971846 c -5.13262,12.609081 -6.22141,24.265132 -3.88336,35.113564 l 15.5802,-8.141016 c -7.2271,-5.764401 -11.96132,-13.945504 -11.69684,-26.972548 z"
                   id="path3308"
                   sodipodi:nodetypes="cccc" />
                <path
                   style="fill:#000000;fill-opacity:1;stroke:none;stroke-width:1.05597;stroke-linecap:round;stroke-linejoin:round;stroke-opacity:1;paint-order:stroke markers fill"
                   d="m -141.84416,28.88061 7.59919,-7.661606 c -5.6557,0.694751 -10.11232,-2.00829 -14.24426,-5.631336 1.28081,4.759719 4.29662,8.97549 6.64507,13.292942 z"
                   id="path3310"
                   sodipodi:nodetypes="cccc" />
                <path
                   style="fill:#000000;fill-opacity:1;stroke:none;stroke-width:1.05597;stroke-linecap:round;stroke-linejoin:round;stroke-opacity:1;paint-order:stroke markers fill"
                   d="m -226.73428,-29.938468 c -5.43238,-7.389884 -12.42449,-13.173798 -21.62395,-16.684897 l -4.19501,13.816894 c 9.55305,-0.816901 17.72346,0.955395 25.81896,2.868003 z"
                   id="path3322"
                   sodipodi:nodetypes="cccc"
                   inkscape:transform-center-x="-3.7875978"
                   inkscape:transform-center-y="4.6072869" />
                <path
                   style="fill:#000000;fill-opacity:1;stroke:none;stroke-width:1.05597;stroke-linecap:round;stroke-linejoin:round;stroke-opacity:1;paint-order:stroke markers fill"
                   d="m -228.47828,-23.695554 c -6.76045,-0.27463 -13.31494,1.071006 -19.57792,4.709675 l 6.02414,8.686833 c 3.93323,-5.812756 8.72036,-9.65794 13.55378,-13.396508 z"
                   id="path3324"
                   sodipodi:nodetypes="cccc"
                   inkscape:transform-center-x="-5.3664903"
                   inkscape:transform-center-y="3.0746474" />
                <path
                   style="fill:#d41f55;fill-opacity:1;stroke:none;stroke-width:1.05597;stroke-linecap:round;stroke-linejoin:round;stroke-opacity:1;paint-order:stroke markers fill"
                   d="m -154.86686,16.85518 c -5.13262,12.609079 -6.22141,24.26513 -3.88336,35.113562 l 15.5802,-8.141016 c -7.2271,-5.764401 -11.96132,-13.945504 -11.69684,-26.972546 z"
                   id="path3326"
                   sodipodi:nodetypes="cccc" />
                <path
                   style="fill:#d41f55;fill-opacity:1;stroke:none;stroke-width:1.05597;stroke-linecap:round;stroke-linejoin:round;stroke-opacity:1;paint-order:stroke markers fill"
                   d="m -143.96084,26.763942 7.59919,-7.661606 c -5.6557,0.694751 -10.11232,-2.008288 -14.24426,-5.631335 1.28081,4.759718 4.29662,8.975489 6.64507,13.292941 z"
                   id="path3328"
                   sodipodi:nodetypes="cccc" />
                <path
                   style="fill:#d41f55;fill-opacity:1;stroke:none;stroke-width:1.05597;stroke-linecap:round;stroke-linejoin:round;stroke-opacity:1;paint-order:stroke markers fill"
                   d="m -228.85096,-32.055136 c -5.43238,-7.389884 -12.42449,-13.173798 -21.62395,-16.684897 l -4.19501,13.816894 c 9.55305,-0.816901 17.72346,0.955395 25.81896,2.868003 z"
                   id="path3330"
                   sodipodi:nodetypes="cccc"
                   inkscape:transform-center-x="-3.7875978"
                   inkscape:transform-center-y="4.6072869" />
                <path
                   style="fill:#d41f55;fill-opacity:1;stroke:none;stroke-width:1.05597;stroke-linecap:round;stroke-linejoin:round;stroke-opacity:1;paint-order:stroke markers fill"
                   d="m -230.59496,-25.812222 c -6.76045,-0.27463 -13.31494,1.071006 -19.57792,4.709675 l 6.02414,8.686833 c 3.93323,-5.812756 8.72036,-9.65794 13.55378,-13.396508 z"
                   id="path3332"
                   sodipodi:nodetypes="cccc"
                   inkscape:transform-center-x="-5.3664903"
                   inkscape:transform-center-y="3.0746474" />
              </g>
              <g
                 id="g3340"
                 transform="matrix(3.99148,0,0,3.8056092,371.87482,1786.9469)"
                 style="stroke-width:0.38705">
                <path
                   id="path3336"
                   style="fill:#000000;fill-rule:evenodd;stroke:none;stroke-width:0.270934;stroke-dasharray:none;stroke-opacity:1;paint-order:stroke markers fill"
                   d="m -121.69809,-466.24967 c 2.08619,0.26299 3.7323,-0.67404 3.95791,-2.64721 0.22561,-1.97317 -0.76327,-3.28696 -2.45765,-3.45539 -1.69438,-0.16843 -2.63431,0.84658 -2.70725,2.0837 -0.0729,1.23711 0.74641,1.91292 1.51269,1.89773 0.76629,-0.0152 1.20464,-0.54654 1.20064,-1.10071 -0.004,-0.55416 -0.76247,-0.90356 -1.76694,-0.32838 l 0.32426,-1.00484 c 1.38503,-0.91549 2.74009,0.32027 2.7451,1.438 0.005,1.11773 -1.03874,2.28679 -2.5156,2.21757 -1.47686,-0.0692 -2.88198,-1.47329 -2.73849,-3.30797 0.14349,-1.83468 1.9087,-3.4759 4.10179,-3.25819 2.19309,0.21771 4.07137,2.34336 3.77935,4.89379 -0.29202,2.55043 -3.02583,4.72834 -6.78617,4.40073 z"
                   sodipodi:nodetypes="czzzzzcczzzzzcc" />
                <path
                   id="path3338"
                   style="fill:#aa00aa;fill-rule:evenodd;stroke:none;stroke-width:0.270934;stroke-dasharray:none;stroke-opacity:1;paint-order:stroke markers fill"
                   d="m -122.21859,-466.79922 c 2.08619,0.26299 3.7323,-0.67404 3.95791,-2.64721 0.22561,-1.97317 -0.76327,-3.28696 -2.45765,-3.45539 -1.69438,-0.16843 -2.63431,0.84658 -2.70725,2.0837 -0.0729,1.23711 0.74641,1.91292 1.51269,1.89773 0.76629,-0.0152 1.20464,-0.54654 1.20064,-1.10071 -0.004,-0.55416 -0.76247,-0.90356 -1.76694,-0.32838 l 0.32426,-1.00484 c 1.38503,-0.91549 2.74009,0.32027 2.7451,1.438 0.005,1.11773 -1.03874,2.28679 -2.5156,2.21757 -1.47686,-0.0692 -2.88198,-1.47329 -2.73849,-3.30797 0.14349,-1.83468 1.9087,-3.4759 4.10179,-3.25819 2.19309,0.21771 4.07137,2.34336 3.77935,4.89379 -0.29202,2.55043 -3.02583,4.72834 -6.78617,4.40073 z"
                   sodipodi:nodetypes="czzzzzcczzzzzcc" />
              </g>
              <path
                 style="fill:#000000;stroke-width:1.05597;stroke-linecap:round;stroke-linejoin:round;paint-order:stroke markers fill"
                 d="m -145.34622,-32.535561 -7.25884,2.484925 7.28813,-0.897999 z"
                 id="path3342" />
              <path
                 style="fill:#000000;stroke-width:1.05597;stroke-linecap:round;stroke-linejoin:round;paint-order:stroke markers fill"
                 d="m -146.43476,-29.068234 -6.73722,1.569486 6.46086,-0.01675 z"
                 id="path3344" />
              <path
                 style="fill:#000000;stroke-width:1.05597;stroke-linecap:round;stroke-linejoin:round;paint-order:stroke markers fill"
                 d="m -147.10676,-26.045462 -3.19409,0.515691 3.17235,0.926041 z"
                 id="path3346" />
              <path
                 style="fill:#000000;stroke-width:1.05597;stroke-linecap:round;stroke-linejoin:round;paint-order:stroke markers fill"
                 d="m -163.48187,-9.7490326 -3.58756,-0.1322916 2.80248,1.1283226 z"
                 id="path3348" />
              <path
                 style="fill:#000000;stroke-width:1.05597;stroke-linecap:round;stroke-linejoin:round;paint-order:stroke markers fill"
                 d="m -165.72309,-7.7271073 -3.02337,-1.3743793 2.23203,2.7154069 z"
                 id="path3350" />
              <path
                 style="fill:#000000;stroke-width:1.05597;stroke-linecap:round;stroke-linejoin:round;paint-order:stroke markers fill"
                 d="m -117.48328,-49.31245 -3.49702,1.293858 3.24023,-0.566156 z"
                 id="path3352" />
              <path
                 style="fill:#000000;stroke-width:1.05597;stroke-linecap:round;stroke-linejoin:round;paint-order:stroke markers fill"
                 d="m -118.67555,-47.26902 c -0.19783,0.04677 -2.3998,0.863434 -2.3998,0.863434 l 2.3131,-0.241538 z"
                 id="path3354" />
              <path
                 style="fill:#000000;stroke-width:1.05597;stroke-linecap:round;stroke-linejoin:round;paint-order:stroke markers fill"
                 d="m -131.36709,-43.594505 -3.30569,0.943324 3.47589,-0.152934 z"
                 id="path3356" />
              <path
                 style="fill:#000000;stroke-width:1.05597;stroke-linecap:round;stroke-linejoin:round;paint-order:stroke markers fill"
                 d="m -131.35882,-42.451007 -2.48053,1.2051 2.49277,-0.479243 z"
                 id="path3358" />
              <path
                 style="fill:#000000;stroke-width:1.05597;stroke-linecap:round;stroke-linejoin:round;paint-order:stroke markers fill"
                 d="m -131.13799,-41.515705 -1.48542,1.603928 1.61941,-0.926151 z"
                 id="path3360" />
              <path
                 style="fill:#000000;stroke-width:1.05597;stroke-linecap:round;stroke-linejoin:round;paint-order:stroke markers fill"
                 d="m -129.6304,-55.274263 -3.53439,-1.225064 3.1035,1.912348 z"
                 id="path3362" />
              <path
                 style="fill:#000000;stroke-width:1.05597;stroke-linecap:round;stroke-linejoin:round;paint-order:stroke markers fill"
                 d="m -130.65386,-53.904664 -3.35901,-1.420032 2.65582,2.097339 z"
                 id="path3364" />
              <path
                 style="fill:#000000;stroke-width:1.05597;stroke-linecap:round;stroke-linejoin:round;paint-order:stroke markers fill"
                 d="m -131.43952,-52.550135 -1.62093,-0.973838 1.27084,1.516181 z"
                 id="path3366" />
              <path
                 style="fill:#000000;stroke-width:1.05597;stroke-linecap:round;stroke-linejoin:round;paint-order:stroke markers fill"
                 d="m -117.15831,-49.475973 -2.52505,-0.113882 3.07608,-0.441663 z"
                 id="path3368" />
              <path
                 style="fill:#000000;stroke-width:1.05597;stroke-linecap:round;stroke-linejoin:round;paint-order:stroke markers fill"
                 d="m -137.37358,-62.644081 -1.31965,-1.587752 2.38336,1.051822 z"
                 id="path3370" />
              <path
                 style="fill:#000000;stroke-width:1.05597;stroke-linecap:round;stroke-linejoin:round;paint-order:stroke markers fill"
                 d="m -136.05898,-63.238243 -0.91871,-1.557041 1.57045,1.118886 z"
                 id="path3372" />
              <path
                 style="fill:#000000;stroke-width:1.05597;stroke-linecap:round;stroke-linejoin:round;paint-order:stroke markers fill"
                 d="m -180.38315,-7.1574584 -4.42551,-1.3435993 3.63507,2.163434 z"
                 id="path3374" />
              <path
                 style="fill:#000000;stroke-width:1.05597;stroke-linecap:round;stroke-linejoin:round;paint-order:stroke markers fill"
                 d="m -182.56248,-5.5913459 -3.60575,-1.9830425 2.83248,2.8363491 z"
                 id="path3376" />
              <path
                 style="fill:#000000;stroke-width:1.05597;stroke-linecap:round;stroke-linejoin:round;paint-order:stroke markers fill"
                 d="m -184.51462,-4.0261255 -3.28498,-2.036195 3.02988,2.7943101 z"
                 id="path3378" />
              <path
                 style="fill:#000000;stroke-width:1.05597;stroke-linecap:round;stroke-linejoin:round;paint-order:stroke markers fill"
                 d="m -185.7146,-2.2253341 -2.6414,-1.4310389 2.35477,2.0273526 z"
                 id="path3380" />
              <path
                 style="fill:#000000;stroke-width:1.05597;stroke-linecap:round;stroke-linejoin:round;paint-order:stroke markers fill"
                 d="m -187.54394,0.02053201 -2.24597,-0.34145352 2.01772,0.75089252 z"
                 id="path3382" />
              <path
                 style="fill:#000000;stroke-width:1.05597;stroke-linecap:round;stroke-linejoin:round;paint-order:stroke markers fill"
                 d="m -144.83937,-32.8022 -4.73818,-0.633218 5.10718,-0.397266 z"
                 id="path3384" />
              <path
                 style="fill:#000000;stroke-width:1.05597;stroke-linecap:round;stroke-linejoin:round;paint-order:stroke markers fill"
                 d="m -144.18387,-33.680422 -3.05493,-1.530326 3.74003,1.010465 z"
                 id="path3386" />
            </g>
          </g>
          <path
             style="fill:#000000;fill-opacity:1;stroke-width:1.05597;stroke-linecap:round;stroke-linejoin:round;paint-order:stroke markers fill"
             d="m -128.18199,-51.793824 -1.69021,3.597582 c 9.12239,-8.932087 26.01237,-11.520203 43.438131,-5.911045 -15.149661,-5.782158 -29.489881,-7.264605 -41.747921,2.313463 z"
             id="path3392"
             sodipodi:nodetypes="cccc" />
          <path
             style="fill:#000000;fill-opacity:1;stroke-width:1.05597;stroke-linecap:round;stroke-linejoin:round;paint-order:stroke markers fill"
             d="m -112.87594,-47.855797 -0.59162,1.803085 c 10.46399,-5.407115 26.180111,-2.019771 34.556864,0.208937 -11.731683,-4.264187 -23.311584,-7.197901 -33.965244,-2.012022 z"
             id="path3394"
             sodipodi:nodetypes="cccc" />
          <path
             style="fill:#000000;fill-opacity:1;stroke-width:1.05597;stroke-linecap:round;stroke-linejoin:round;paint-order:stroke markers fill"
             d="m -112.97755,-38.31636 c 7.96236,-3.973084 15.929639,-3.155716 23.750224,1.451352 -6.393249,-4.510082 -13.214024,-7.577333 -22.206854,-3.314171 z"
             id="path3396"
             sodipodi:nodetypes="cccc" />
        </g>
      </g>
      <g
         id="btn-normal-topleft"
         transform="matrix(0.26458333,0,0,0.26458333,120.23014,-16.42106)"
         style="stroke-width:0.5">
        <rect
           style="fill:#2a3f55;fill-opacity:1;stroke:none;stroke-width:18.8976;stroke-linecap:round;stroke-linejoin:round;paint-order:stroke markers fill"
           id="rect6674"
           width="1"
           height="1.0000057"
           x="51.785709"
           y="341.41626" />
        <rect
           style="fill:#4f5a55;fill-opacity:1;stroke:none;stroke-width:18.8976;stroke-linecap:round;stroke-linejoin:round;paint-order:stroke markers fill"
           id="rect7353"
           width="1.9999994"
           height="1.0000082"
           x="50.785713"
           y="340.41626" />
        <rect
           style="fill:#4f5a55;fill-opacity:1;stroke:none;stroke-width:18.8976;stroke-linecap:round;stroke-linejoin:round;paint-order:stroke markers fill"
           id="rect7355"
           width="0.99999779"
           height="1.0000085"
           x="50.785713"
           y="341.41626" />
      </g>
      <g
         id="btn-normal-top"
         transform="matrix(21.166648,0,0,0.26458333,-930.18363,-16.421055)"
         style="stroke-width:0.0559015">
        <rect
           style="fill:#2a3f55;fill-opacity:1;stroke:none;stroke-width:2.11283;stroke-linecap:round;stroke-linejoin:round;paint-order:stroke markers fill"
           id="rect7577"
           width="2.9999988"
           height="1.0000082"
           x="50.285717"
           y="341.41626" />
        <rect
           style="fill:#4f5a55;fill-opacity:1;stroke:none;stroke-width:2.11282;stroke-linecap:round;stroke-linejoin:round;paint-order:stroke markers fill"
           id="rect7579"
           width="2.9999979"
           height="1.0000082"
           x="50.285713"
           y="340.41626" />
      </g>
      <g
         id="btn-normal-topright"
         transform="matrix(-0.26458333,0,0,0.26458333,211.36756,-16.235821)"
         style="stroke-width:0.5">
        <rect
           style="fill:#2a3f55;fill-opacity:1;stroke:none;stroke-width:18.8976;stroke-linecap:round;stroke-linejoin:round;paint-order:stroke markers fill"
           id="rect7595"
           width="1"
           height="1.0000162"
           x="50.670677"
           y="340.71616" />
        <rect
           style="fill:#4f5a55;fill-opacity:1;stroke:none;stroke-width:18.8976;stroke-linecap:round;stroke-linejoin:round;paint-order:stroke markers fill"
           id="rect7599"
           width="1.9999967"
           height="1.0000082"
           x="49.670677"
           y="339.71616" />
        <path
           id="rect7601"
           style="fill:#ccccff;fill-opacity:1;stroke-width:18.8976;stroke-linecap:round;stroke-linejoin:round;paint-order:stroke markers fill"
           d="m 49.670673,339.71617 1.000002,0.99999 -4e-6,1.00001 h -0.999998 z"
           sodipodi:nodetypes="ccccc" />
      </g>
      <g
         id="btn-normal-right"
         transform="matrix(0,21.166648,-0.26458333,0,288.294,-990.20341)"
         style="stroke-width:0.055902">
        <rect
           style="fill:#2a3f55;fill-opacity:1;stroke:none;stroke-width:2.11283;stroke-linecap:round;stroke-linejoin:round;paint-order:stroke markers fill"
           id="rect7796"
           width="2.9999988"
           height="1.0000082"
           x="50.285717"
           y="341.41626" />
        <rect
           style="fill:#ccccff;fill-opacity:1;stroke:none;stroke-width:2.11283;stroke-linecap:round;stroke-linejoin:round;paint-order:stroke markers fill"
           id="rect7798"
           width="2.9999979"
           height="1.0000082"
           x="50.285713"
           y="340.41626" />
      </g>
      <g
         id="btn-normal-bottomright"
         transform="matrix(-0.26458333,0,0,-0.26458333,211.36756,228.1949)"
         style="stroke-width:0.5">
        <rect
           style="fill:#2a3f55;fill-opacity:1;stroke:none;stroke-width:18.8976;stroke-linecap:round;stroke-linejoin:round;paint-order:stroke markers fill"
           id="rect7925"
           width="1"
           height="1.0000092"
           x="50.670673"
           y="341.11649" />
        <rect
           style="fill:#ccccff;fill-opacity:1;stroke:none;stroke-width:18.8976;stroke-linecap:round;stroke-linejoin:round;paint-order:stroke markers fill"
           id="rect7929"
           width="2.0000005"
           height="1.0000082"
           x="49.670673"
           y="340.11649" />
        <rect
           style="fill:#ccccff;fill-opacity:1;stroke:none;stroke-width:18.8976;stroke-linecap:round;stroke-linejoin:round;paint-order:stroke markers fill"
           id="rect7931"
           width="0.99999779"
           height="1.0000119"
           x="49.670673"
           y="341.11649" />
      </g>
      <g
         id="btn-normal-bottom"
         transform="matrix(21.166648,0,0,-0.26458333,-930.18363,228.27422)"
         style="stroke-width:0.0559015">
        <rect
           style="fill:#2a3f55;fill-opacity:1;stroke:none;stroke-width:2.11283;stroke-linecap:round;stroke-linejoin:round;paint-order:stroke markers fill"
           id="rect7937"
           width="2.9999988"
           height="1.0000082"
           x="50.285717"
           y="341.41626" />
        <rect
           style="fill:#ccccff;fill-opacity:1;stroke:none;stroke-width:2.11282;stroke-linecap:round;stroke-linejoin:round;paint-order:stroke markers fill"
           id="rect7939"
           width="2.9999979"
           height="1.0000082"
           x="50.285713"
           y="340.41626" />
      </g>
      <g
         id="btn-normal-bottomleft"
         transform="matrix(0.26458333,0,0,-0.26458333,120.36243,228.27422)"
         style="stroke-width:0.5">
        <rect
           style="fill:#2a3f55;fill-opacity:1;stroke:none;stroke-width:18.8976;stroke-linecap:round;stroke-linejoin:round;paint-order:stroke markers fill"
           id="rect7945"
           width="1"
           height="1.0000272"
           x="51.285713"
           y="341.41626" />
        <rect
           style="fill:#ccccff;fill-opacity:1;stroke:none;stroke-width:18.8976;stroke-linecap:round;stroke-linejoin:round;paint-order:stroke markers fill"
           id="rect7949"
           width="1.9999982"
           height="1.0000082"
           x="50.285713"
           y="340.41626" />
        <path
           id="path7951"
           style="fill:#4f5a55;fill-opacity:1;stroke-width:18.8976;stroke-linecap:round;stroke-linejoin:round;paint-order:stroke markers fill"
           d="m 50.285709,340.41626 1.000001,1.00002 10e-7,1 h -0.999998 z"
           sodipodi:nodetypes="ccccc" />
      </g>
      <g
         id="btn-normal-left"
         transform="matrix(0,21.166648,0.26458333,0,43.598727,-990.20324)"
         style="stroke-width:0.055902">
        <rect
           style="fill:#2a3f55;fill-opacity:1;stroke:none;stroke-width:2.11283;stroke-linecap:round;stroke-linejoin:round;paint-order:stroke markers fill"
           id="rect7959"
           width="2.9999988"
           height="1.0000082"
           x="50.285717"
           y="341.41626" />
        <rect
           style="fill:#4f5a55;fill-opacity:1;stroke:none;stroke-width:2.11283;stroke-linecap:round;stroke-linejoin:round;paint-order:stroke markers fill"
           id="rect7961"
           width="2.9999979"
           height="1.0000082"
           x="50.285713"
           y="340.41626" />
      </g>
    </g>
  </g>
</svg>
