<?xml version="1.0" encoding="UTF-8" standalone="no"?>
<!-- Created with Inkscape (http://www.inkscape.org/) -->

<svg
   width="5.2916665mm"
   height="5.2916665mm"
   viewBox="0 0 5.2916665 5.2916665"
   version="1.1"
   id="svg336"
   inkscape:version="1.2.2 (1:1.2.2+202212051552+b0a8486541)"
   sodipodi:docname="restart.svg"
   xmlns:inkscape="http://www.inkscape.org/namespaces/inkscape"
   xmlns:sodipodi="http://sodipodi.sourceforge.net/DTD/sodipodi-0.dtd"
   xmlns="http://www.w3.org/2000/svg"
   xmlns:svg="http://www.w3.org/2000/svg">
  <sodipodi:namedview
     id="namedview338"
     pagecolor="#ffffff"
     bordercolor="#000000"
     borderopacity="0.25"
     inkscape:showpageshadow="2"
     inkscape:pageopacity="0.0"
     inkscape:pagecheckerboard="0"
     inkscape:deskcolor="#d1d1d1"
     inkscape:document-units="mm"
     showgrid="true"
     inkscape:zoom="2"
     inkscape:cx="52"
     inkscape:cy="-57.75"
     inkscape:window-width="1536"
     inkscape:window-height="866"
     inkscape:window-x="0"
     inkscape:window-y="0"
     inkscape:window-maximized="1"
     inkscape:current-layer="layer1">
    <inkscape:grid
       type="xygrid"
       id="grid511" />
  </sodipodi:namedview>
  <defs
     id="defs333" />
  <g
     inkscape:label="Réteg 1"
     inkscape:groupmode="layer"
     id="layer1"
     transform="translate(-61.437355,-96.461838)">
    <path
       id="path759"
       style="fill:#000000;stroke-width:9.99998;stroke-linecap:round;stroke-linejoin:round;paint-order:markers stroke fill"
       d="m 64.083188,96.726421 a 2.3812499,2.3812499 0 0 0 -2.38125,2.38125 2.3812499,2.3812499 0 0 0 2.38125,2.381249 2.3812499,2.3812499 0 0 0 2.364713,-2.116666 h -0.800468 a 1.5875,1.5875 0 0 1 -1.564245,1.322916 1.5875,1.5875 0 0 1 -1.5875,-1.587499 1.5875,1.5875 0 0 1 1.5875,-1.5875 1.5875,1.5875 0 0 1 1.496549,1.058333 h 0.825273 a 2.3812499,2.3812499 0 0 0 -2.321822,-1.852083 z" />
    <path
       style="fill:#000000;stroke-width:10;stroke-linecap:round;stroke-linejoin:round;paint-order:markers stroke fill"
       d="M 66.729021,101.7535 V 99.107671 H 64.083188 Z"
       id="path757"
       sodipodi:nodetypes="cccc" />
  </g>
</svg>
