<?xml version="1.0" encoding="UTF-8" standalone="no"?>
<!-- Created with Inkscape (http://www.inkscape.org/) -->

<svg
   width="5.2916665mm"
   height="5.2916665mm"
   viewBox="0 0 5.2916665 5.2916665"
   version="1.1"
   id="svg336"
   inkscape:version="1.2.2 (1:1.2.2+202212051552+b0a8486541)"
   sodipodi:docname="shutdown.svg"
   xmlns:inkscape="http://www.inkscape.org/namespaces/inkscape"
   xmlns:sodipodi="http://sodipodi.sourceforge.net/DTD/sodipodi-0.dtd"
   xmlns="http://www.w3.org/2000/svg"
   xmlns:svg="http://www.w3.org/2000/svg">
  <sodipodi:namedview
     id="namedview338"
     pagecolor="#ffffff"
     bordercolor="#000000"
     borderopacity="0.25"
     inkscape:showpageshadow="2"
     inkscape:pageopacity="0.0"
     inkscape:pagecheckerboard="0"
     inkscape:deskcolor="#d1d1d1"
     inkscape:document-units="mm"
     showgrid="true"
     inkscape:zoom="2.8284271"
     inkscape:cx="33.941126"
     inkscape:cy="0.88388348"
     inkscape:window-width="1536"
     inkscape:window-height="866"
     inkscape:window-x="0"
     inkscape:window-y="0"
     inkscape:window-maximized="1"
     inkscape:current-layer="layer1">
    <inkscape:grid
       type="xygrid"
       id="grid511" />
  </sodipodi:namedview>
  <defs
     id="defs333" />
  <g
     inkscape:label="Réteg 1"
     inkscape:groupmode="layer"
     id="layer1"
     transform="translate(-61.437355,-96.461838)">
    <g
       id="g695"
       transform="translate(-5.2916667)">
      <path
         id="path683"
         style="fill:#000000;stroke-width:10;stroke-linecap:round;stroke-linejoin:round;paint-order:markers stroke fill"
         d="m 69.374855,96.726421 a 2.3812499,2.3812499 0 0 0 -2.38125,2.38125 2.3812499,2.3812499 0 0 0 1.322917,2.132169 v -0.94981 a 1.5875,1.5875 0 0 1 -0.529167,-1.182359 1.5875,1.5875 0 0 1 1.5875,-1.5875 1.5875,1.5875 0 0 1 1.5875,1.5875 1.5875,1.5875 0 0 1 -0.529167,1.182359 v 0.94981 a 2.3812499,2.3812499 0 0 0 1.322917,-2.132169 2.3812499,2.3812499 0 0 0 -2.38125,-2.38125 z" />
      <rect
         style="fill:#000000;stroke-width:10;stroke-linecap:round;stroke-linejoin:round;paint-order:markers stroke fill"
         id="rect688"
         width="1.0583333"
         height="2.6458356"
         x="68.845688"
         y="99.107666" />
    </g>
  </g>
</svg>
